<!-- From: https://fontawesome.com/icons/kiwi-bird -->
<svg aria-hidden="true" focusable="false" data-prefix="fas" data-icon="kiwi-bird" role="img" xmlns="http://www.w3.org/2000/svg" viewBox="0 0 448 512" class="svg-inline--fa fa-kiwi-bird fa-w-14 fa-9x">
    <defs class="">
        <clipPath id="clip-xb6z1LtyLPvQ" class="">
            <path fill="currentColor" d="M400 32H48C21.5 32 0 53.5 0 80v352c0 26.5 21.5 48 48 48h352c26.5 0 48-21.5 48-48V80c0-26.5-21.5-48-48-48z" class=""></path>
        </clipPath>
        <mask x="0" y="0" width="100%" height="100%" id="mask-ghYEvoQdjBLv" maskUnits="userSpaceOnUse" maskContentUnits="userSpaceOnUse" class="">
            <rect x="0" y="0" width="100%" height="100%" fill="white" class=""></rect>
            <g transform="translate(224 256)" class="">
                <g transform="translate(0, 0)  scale(0.5625, 0.5625)  rotate(0 0 0)" class="">
                    <path fill="black" d="M575.81 217.98C572.64 157.41 518.28 112 457.63 112h-9.37c-52.82 0-104.25-16.25-147.74-46.24-41.99-28.96-96.04-41.62-153.21-28.7C129.3 41.12-.08 78.24 0 224c.04 70.95 38.68 132.8 95.99 166.01V464c0 8.84 7.16 16 16 16h16c8.84 0 16-7.16 16-16v-54.26c15.36 3.96 31.4 6.26 48 6.26 5.44 0 10.68-.73 16-1.18V464c0 8.84 7.16 16 16 16h16c8.84 0 16-7.16 16-16v-59.43c14.24-5.06 27.88-11.39 40.34-19.51C342.07 355.25 393.86 336 448.46 336c25.48 0 16.01-.31 23.05-.78l74.41 136.44c2.86 5.23 8.3 8.34 14.05 8.34 1.31 0 2.64-.16 3.95-.5 7.09-1.8 12.05-8.19 12.05-15.5 0 0 .14-240.24-.16-246.02zM463.97 248c-13.25 0-24-10.75-24-24 0-13.26 10.75-24 24-24s24 10.74 24 24c0 13.25-10.75 24-24 24zm80 153.25l-39.86-73.08c15.12-5.83 28.73-14.6 39.86-25.98v99.06z" transform="translate(-288 -256)" class=""></path>
                </g>
            </g>
        </mask>
    </defs>
    <rect fill="currentColor" clip-path="url(#clip-xb6z1LtyLPvQ)" mask="url(#mask-ghYEvoQdjBLv)" x="0" y="0" width="100%" height="100%" class=""></rect>
</svg>
