<svg width="319" height="61" viewBox="0 0 319 61" fill="none" xmlns="http://www.w3.org/2000/svg">
<rect x="17" y="8" width="92" height="34" rx="5" fill="black"/>
<path d="M1.5 24C1.5 22.067 3.067 20.5 5 20.5L87 20.5C88.933 20.5 90.5 22.067 90.5 24L90.5 48C90.5 49.933 88.933 51.5 87 51.5L5 51.5C3.067 51.5 1.5 49.933 1.5 48L1.5 24Z" stroke="black" stroke-width="3"/>
<path d="M-1.09278e-07 24C-4.89256e-08 21.2386 2.23858 19 5 19L58 19L58 52.9152L5 52.9152C2.23858 52.9152 -6.92315e-07 50.6767 -6.31963e-07 47.9152L-1.09278e-07 24Z" fill="url(#paint0_linear)"/>
<path d="M139.858 48H132.551V6.76562H158.889V12.6562H139.858V24.7207H156.51V30.583H139.858V48ZM171.845 48H164.821V4.5H171.845V48ZM197.035 27.2979C197.035 25.7119 196.592 24.4469 195.704 23.5029C194.836 22.5589 193.514 22.0869 191.739 22.0869C190.135 22.0869 188.851 22.4834 187.888 23.2764C186.944 24.0693 186.472 25.0605 186.472 26.25H179.448C179.448 24.6074 179.968 23.0687 181.006 21.6338C182.044 20.18 183.508 19.0094 185.396 18.1221C187.302 17.2347 189.549 16.791 192.136 16.791C195.591 16.791 198.442 17.6689 200.689 19.4248C202.935 21.1807 204.059 23.8239 204.059 27.3545V40.8633C204.059 43.6576 204.455 45.876 205.248 47.5186V48H198.055C197.734 47.2826 197.479 46.3102 197.29 45.083C196.403 46.0459 195.279 46.8672 193.92 47.5469C192.58 48.2266 190.994 48.5664 189.162 48.5664C187.161 48.5664 185.377 48.1699 183.81 47.377C182.243 46.584 181.006 45.4984 180.1 44.1201C179.212 42.7419 178.769 41.1748 178.769 39.4189C178.769 36.1715 179.986 33.6794 182.422 31.9424C184.858 30.2054 188.313 29.3369 192.787 29.3369H197.035V27.2979ZM190.55 42.9873C192.136 42.9873 193.495 42.6191 194.628 41.8828C195.761 41.1276 196.563 40.2874 197.035 39.3623V33.6699H193.297C190.805 33.6699 188.926 34.1325 187.661 35.0576C186.415 35.9639 185.792 37.2005 185.792 38.7676C185.792 39.9759 186.198 40.986 187.01 41.7979C187.841 42.5908 189.021 42.9873 190.55 42.9873ZM228.853 17.3574H236.357L224.095 52.6445C223.736 53.6641 223.198 54.778 222.48 55.9863C221.782 57.1947 220.8 58.2236 219.535 59.0732C218.27 59.9417 216.618 60.376 214.579 60.376C213.956 60.376 213.361 60.3288 212.795 60.2344C212.247 60.14 211.719 60.0173 211.209 59.8662V54.457C211.398 54.4759 211.624 54.4948 211.889 54.5137C212.153 54.5326 212.37 54.542 212.54 54.542C214.22 54.542 215.485 54.2399 216.335 53.6357C217.203 53.0316 217.883 52.0026 218.374 50.5488L219.365 47.915L208.575 17.3574H216.165L222.622 37.9746L228.853 17.3574ZM257.866 17.3574H265.371L253.108 52.6445C252.75 53.6641 252.212 54.778 251.494 55.9863C250.795 57.1947 249.814 58.2236 248.549 59.0732C247.284 59.9417 245.632 60.376 243.593 60.376C242.97 60.376 242.375 60.3288 241.809 60.2344C241.261 60.14 240.732 60.0173 240.223 59.8662V54.457C240.411 54.4759 240.638 54.4948 240.902 54.5137C241.167 54.5326 241.384 54.542 241.554 54.542C243.234 54.542 244.499 54.2399 245.349 53.6357C246.217 53.0316 246.897 52.0026 247.388 50.5488L248.379 47.915L237.589 17.3574H245.179L251.636 37.9746L257.866 17.3574ZM283.34 48.5664C280.3 48.5664 277.676 47.915 275.467 46.6123C273.258 45.2907 271.558 43.516 270.369 41.2881C269.18 39.0413 268.585 36.5303 268.585 33.7549V32.5938C268.585 29.403 269.189 26.6276 270.397 24.2676C271.606 21.8887 273.258 20.0479 275.353 18.7451C277.468 17.4424 279.856 16.791 282.518 16.791C285.464 16.791 287.909 17.4329 289.853 18.7168C291.798 19.9818 293.252 21.7471 294.215 24.0127C295.178 26.2594 295.659 28.8649 295.659 31.8291V34.8594H275.665C275.854 37.1816 276.656 39.1074 278.072 40.6367C279.488 42.1471 281.386 42.9023 283.764 42.9023C285.407 42.9023 286.861 42.5814 288.126 41.9395C289.391 41.2975 290.495 40.3724 291.439 39.1641L295.121 42.8457C294.139 44.2995 292.685 45.6211 290.76 46.8105C288.834 47.9811 286.361 48.5664 283.34 48.5664ZM282.49 22.4268C280.621 22.4268 279.12 23.0876 277.987 24.4092C276.854 25.7308 276.127 27.5244 275.806 29.79H288.721V29.252C288.683 28.0625 288.447 26.9486 288.013 25.9102C287.597 24.8717 286.936 24.0316 286.03 23.3896C285.143 22.7477 283.963 22.4268 282.49 22.4268ZM308.53 48H301.507V17.3574H308.19L308.388 20.8975C309.163 19.6325 310.125 18.6318 311.277 17.8955C312.448 17.1592 313.816 16.791 315.384 16.791C315.78 16.791 316.224 16.8288 316.715 16.9043C317.205 16.9798 317.574 17.0648 317.819 17.1592L317.762 23.8145C317.328 23.7578 316.866 23.7106 316.375 23.6729C315.903 23.6162 315.431 23.5879 314.959 23.5879C313.297 23.5879 311.938 23.9089 310.881 24.5508C309.823 25.1927 309.04 26.099 308.53 27.2695V48Z" fill="black"/>
<defs>
<linearGradient id="paint0_linear" x1="29" y1="19" x2="29" y2="45.6235" gradientUnits="userSpaceOnUse">
<stop stop-color="white" stop-opacity="0"/>
<stop offset="1" stop-color="white" stop-opacity="0.38"/>
</linearGradient>
</defs>
</svg>
