<svg width="287" height="61" viewBox="0 0 287 61" fill="none" xmlns="http://www.w3.org/2000/svg">
<rect x="17" y="9" width="92" height="34" rx="5" fill="white"/>
<path d="M1.5 25C1.5 23.067 3.067 21.5 5 21.5L87 21.5C88.933 21.5 90.5 23.067 90.5 25L90.5 49C90.5 50.933 88.933 52.5 87 52.5L5 52.5C3.067 52.5 1.5 50.933 1.5 49L1.5 25Z" stroke="white" stroke-width="3"/>
<path d="M-1.09278e-07 25C-4.89256e-08 22.2386 2.23858 20 5 20L58 20L58 53.9152L5 53.9152C2.23858 53.9152 -6.92315e-07 51.6767 -6.31963e-07 48.9152L-1.09278e-07 25Z" fill="url(#paint0_linear)"/>
<path d="M139.441 48H132.135V6.76562H158.473V12.6562H139.441V24.7207H156.094V30.583H139.441V48ZM171.429 48H164.405V4.5H171.429V48ZM196.534 17.3574H204.039L191.776 52.6445C191.417 53.6641 190.879 54.778 190.162 55.9863C189.463 57.1947 188.482 58.2236 187.217 59.0732C185.952 59.9417 184.3 60.376 182.261 60.376C181.638 60.376 181.043 60.3288 180.476 60.2344C179.929 60.14 179.4 60.0173 178.89 59.8662V54.457C179.079 54.4759 179.306 54.4948 179.57 54.5137C179.834 54.5326 180.052 54.542 180.222 54.542C181.902 54.542 183.167 54.2399 184.016 53.6357C184.885 53.0316 185.565 52.0026 186.056 50.5488L187.047 47.915L176.257 17.3574H183.847L190.304 37.9746L196.534 17.3574ZM225.548 17.3574H233.052L220.79 52.6445C220.431 53.6641 219.893 54.778 219.176 55.9863C218.477 57.1947 217.495 58.2236 216.23 59.0732C214.965 59.9417 213.313 60.376 211.274 60.376C210.651 60.376 210.056 60.3288 209.49 60.2344C208.942 60.14 208.414 60.0173 207.904 59.8662V54.457C208.093 54.4759 208.319 54.4948 208.584 54.5137C208.848 54.5326 209.065 54.542 209.235 54.542C210.915 54.542 212.18 54.2399 213.03 53.6357C213.899 53.0316 214.578 52.0026 215.069 50.5488L216.06 47.915L205.27 17.3574H212.86L219.317 37.9746L225.548 17.3574ZM251.021 48.5664C247.981 48.5664 245.357 47.915 243.148 46.6123C240.939 45.2907 239.24 43.516 238.05 41.2881C236.861 39.0413 236.266 36.5303 236.266 33.7549V32.5938C236.266 29.403 236.87 26.6276 238.079 24.2676C239.287 21.8887 240.939 20.0479 243.035 18.7451C245.149 17.4424 247.538 16.791 250.2 16.791C253.145 16.791 255.59 17.4329 257.535 18.7168C259.48 19.9818 260.933 21.7471 261.896 24.0127C262.859 26.2594 263.341 28.8649 263.341 31.8291V34.8594H243.346C243.535 37.1816 244.338 39.1074 245.754 40.6367C247.17 42.1471 249.067 42.9023 251.446 42.9023C253.089 42.9023 254.542 42.5814 255.807 41.9395C257.072 41.2975 258.177 40.3724 259.121 39.1641L262.802 42.8457C261.821 44.2995 260.367 45.6211 258.441 46.8105C256.515 47.9811 254.042 48.5664 251.021 48.5664ZM250.172 22.4268C248.302 22.4268 246.801 23.0876 245.669 24.4092C244.536 25.7308 243.809 27.5244 243.488 29.79H256.402V29.252C256.364 28.0625 256.128 26.9486 255.694 25.9102C255.279 24.8717 254.618 24.0316 253.712 23.3896C252.824 22.7477 251.644 22.4268 250.172 22.4268ZM276.212 48H269.188V17.3574H275.872L276.07 20.8975C276.844 19.6325 277.807 18.6318 278.959 17.8955C280.129 17.1592 281.498 16.791 283.065 16.791C283.462 16.791 283.905 16.8288 284.396 16.9043C284.887 16.9798 285.255 17.0648 285.501 17.1592L285.444 23.8145C285.01 23.7578 284.547 23.7106 284.056 23.6729C283.584 23.6162 283.112 23.5879 282.64 23.5879C280.979 23.5879 279.619 23.9089 278.562 24.5508C277.505 25.1927 276.721 26.099 276.212 27.2695V48Z" fill="white"/>
<defs>
<linearGradient id="paint0_linear" x1="29" y1="20" x2="29" y2="46.6235" gradientUnits="userSpaceOnUse">
<stop stop-color="white" stop-opacity="0"/>
<stop offset="1" stop-color="white" stop-opacity="0.38"/>
</linearGradient>
</defs>
</svg>
